<svg width="466" height="488" viewBox="0 0 466 488" fill="none" xmlns="http://www.w3.org/2000/svg">
<g clip-path="url(#clip0_8_179)">
<path d="M335.986 420.022H291.274C289.786 420.022 288.616 418.826 288.616 417.362V415.264C288.616 413.775 289.811 412.604 291.274 412.604H335.986C337.474 412.604 338.645 413.8 338.645 415.264V417.362C338.621 418.826 337.426 420.022 335.986 420.022Z" fill="#B7B7C4"/>
<path d="M320.497 293.971H306.715V412.58H320.497V293.971Z" fill="#735639"/>
<path d="M325.644 92.1832L337.669 91.0364L340.109 114.68C340.109 114.68 336.718 115.827 333.206 116.022C329.62 116.217 326.302 116.022 326.302 116.022L325.644 92.1832Z" fill="#953373"/>
<path d="M280.103 57.1204C276.151 65.3188 267.418 100.845 267.418 100.845C267.126 101.602 267.418 102.456 268.126 102.944C270.419 104.53 275.809 109.532 286.298 112.874C291.396 114.485 303.886 116.583 309.618 116.168C310.667 116.071 311.423 115.168 311.423 115.168L317.228 33.6964C292.64 32.452 282.444 52.3136 280.103 57.1204Z" fill="url(#paint0_linear_8_179)"/>
<path d="M289.689 102.944C285.688 102.944 282.493 97.3072 282.493 90.158C282.493 83.0088 285.64 77.3724 289.689 77.3724C293.689 77.3724 296.885 83.0088 296.885 90.158C296.885 97.3804 293.689 102.944 289.689 102.944ZM289.689 79.1536C286.737 79.1536 284.249 84.2044 284.249 90.2068C284.249 96.2092 286.737 101.26 289.689 101.26C292.64 101.26 295.128 96.2092 295.128 90.2068C295.128 84.2044 292.64 79.1536 289.689 79.1536Z" fill="white"/>
<path d="M317.399 105.432C337.863 105.432 354.452 89.7779 354.452 70.4672C354.452 51.1564 337.863 35.502 317.399 35.502C296.935 35.502 280.346 51.1564 280.346 70.4672C280.346 89.7779 296.935 105.432 317.399 105.432Z" fill="#FCB58A"/>
<path d="M333.742 101.821C333.181 87.9864 332.449 70.394 332.449 69.8572C332.449 69.8572 324.619 67.7588 320.155 63.562C318.765 62.22 317.765 60.9024 317.106 59.6092C317.643 61.61 318.546 63.7084 320.399 65.8556C324.4 70.4916 330.498 73.7612 330.498 73.7612C330.449 74.2492 330.986 89.792 330.205 103.236C331.474 102.822 332.596 102.334 333.742 101.821Z" fill="#E3996D"/>
<path d="M416.483 329.107C396.7 329.107 380.674 329.815 380.576 330.693C380.674 331.547 396.7 332.279 416.483 332.279C436.216 332.279 452.291 331.572 452.389 330.693C452.291 329.79 436.265 329.107 416.483 329.107ZM417.288 331.84C402.457 331.84 390.455 331.303 390.455 330.644C390.455 329.986 402.481 329.449 417.288 329.449C432.094 329.449 444.12 329.986 444.12 330.644C444.168 331.303 432.118 331.84 417.288 331.84Z" fill="#E8D4C1"/>
<path d="M416.483 329.107C396.651 329.107 380.576 329.815 380.576 330.693C380.576 331.572 396.651 332.279 416.483 332.279C436.314 332.279 452.389 331.572 452.389 330.693C452.389 329.815 436.314 329.107 416.483 329.107ZM417.288 331.84C402.457 331.84 390.455 331.303 390.455 330.644C390.455 329.986 402.481 329.449 417.288 329.449C432.094 329.449 444.12 329.986 444.12 330.644C444.168 331.303 432.118 331.84 417.288 331.84Z" fill="#E8D4C1"/>
<path d="M417.288 331.84C432.107 331.84 444.12 331.305 444.12 330.644C444.12 329.984 432.107 329.449 417.288 329.449C402.469 329.449 390.456 329.984 390.456 330.644C390.456 331.305 402.469 331.84 417.288 331.84Z" fill="#BA9C7E"/>
<path d="M437.021 193.907C429.338 212.134 423.874 231.288 420.751 250.856C417.629 270.425 416.8 290.287 418.312 310.051C419.166 321.104 420.8 332.133 423.117 342.966C423.557 344.918 426.557 344.113 426.118 342.161C421.971 322.983 420.215 303.39 420.727 283.796C421.264 264.301 424.118 244.83 429.216 225.993C432.07 215.354 435.704 204.911 439.997 194.761C440.339 194.004 439.656 193.053 438.9 192.858C438.021 192.565 437.314 193.15 437.021 193.907Z" fill="#4C7378"/>
<path d="M438.021 276.403C430.338 293.044 425.776 310.978 424.532 329.254C424.191 334.353 424.093 339.502 424.288 344.601C424.386 346.602 427.484 346.602 427.386 344.601C426.728 326.765 429.338 308.928 435.07 292.044C436.68 287.286 438.558 282.552 440.705 277.965C441.558 276.184 438.875 274.598 438.021 276.403Z" fill="#4C7378"/>
<path d="M398.92 198.006C403.823 214.94 407.311 232.239 409.897 249.661C412.482 267.082 414.141 284.626 415.482 302.121C416.239 312.052 416.922 322.007 417.531 331.986C417.678 333.987 420.776 333.987 420.629 331.986C419.483 314.296 418.288 296.558 416.58 278.916C414.824 261.324 412.531 243.707 409.043 226.359C407.091 216.526 404.75 206.814 401.944 197.176C401.359 195.249 398.408 196.054 398.92 198.006Z" fill="#4C7378"/>
<path d="M380.772 248.856C385.016 253.199 387.626 258.738 389.919 264.252C392.456 270.352 394.675 276.598 396.602 282.942C400.408 295.484 403.14 308.367 404.555 321.372C405.36 328.668 405.799 336.012 405.847 343.406C405.847 345.406 408.945 345.406 408.945 343.406C408.848 329.961 407.457 316.517 404.896 303.341C402.31 290.189 398.456 277.208 393.407 264.764C390.773 258.274 387.919 251.735 382.918 246.684C381.528 245.22 379.332 247.416 380.772 248.856Z" fill="#4C7378"/>
<path d="M402.164 310.466C399.871 307.66 397.017 305.732 394.627 304.78C392.236 303.829 390.334 303.829 389.772 304.439C389.211 305.049 389.333 306.928 390.163 309.197C390.992 311.466 392.358 314.199 394.407 316.736C396.456 319.274 398.895 321.128 401.042 322.373C403.14 323.617 404.945 324.13 405.481 323.812C406.14 323.373 406.53 321.519 406.091 319.006C405.701 316.468 404.457 313.272 402.164 310.466Z" fill="#4C7378"/>
<path d="M411.994 289.433C413.897 280.088 412.141 271.938 410.384 271.596C408.677 271.304 404.091 278.233 402.237 287.432C400.383 296.631 402.286 304.878 403.53 305.171C405.091 305.561 410.092 298.778 411.994 289.433Z" fill="#689399"/>
<path d="M403.604 305.097C405.54 303.126 400.891 295.419 393.222 287.883C385.553 280.347 377.766 275.836 375.831 277.806C373.895 279.777 378.544 287.484 386.213 295.02C393.883 302.556 401.669 307.068 403.604 305.097Z" fill="#4C7378"/>
<path d="M417.8 316.248C418.702 312.393 419.19 308.611 419.385 305.146C419.58 301.706 419.483 298.558 419.141 295.996C418.532 290.75 417.288 287.603 416.434 287.603C415.58 287.603 414.287 290.653 412.848 295.484C412.141 297.875 411.311 300.73 410.555 303.829C409.75 306.976 408.896 310.368 408.067 313.979C407.213 317.566 406.482 321.031 405.872 324.178C405.262 327.326 404.725 330.278 404.286 332.767C403.481 337.72 403.286 341.063 403.847 341.356C404.555 341.698 407.091 339.404 409.945 335.012C411.385 332.816 412.848 330.059 414.238 326.911C415.653 323.715 416.897 320.104 417.8 316.248Z" fill="#57848A"/>
<path d="M438.119 320.152C441.071 314.906 443.266 309.856 444.51 305.952C445.803 302.048 446.12 299.315 445.364 298.802C444.656 298.314 442.217 299.705 439.168 302.511C436.119 305.366 432.436 309.758 429.386 315.15C426.337 320.592 424.532 326.033 423.703 330.132C423.264 332.182 423.093 333.89 423.093 335.134C423.093 335.524 422.947 336.037 423.239 336.671C423.288 336.818 423.386 336.964 423.483 337.062C423.581 337.208 423.825 337.354 423.971 337.403C424.313 337.501 424.532 337.403 424.679 337.306C424.971 337.11 425.166 336.769 425.069 336.549C424.971 336.305 424.825 336.403 424.776 336.403C424.727 336.452 424.679 336.452 424.63 336.5C424.581 336.549 424.679 336.5 424.63 336.5C424.63 336.5 424.581 336.5 424.532 336.452C424.483 336.403 424.435 336.305 424.435 336.305C424.435 336.305 424.435 336.403 424.435 336.5C424.435 336.5 424.435 336.5 424.435 336.549L424.63 336.403C424.63 336.403 424.63 336.403 424.679 336.403C424.776 336.403 424.971 336.354 425.337 336.452H425.435H425.484H425.532C425.581 336.452 425.63 336.452 425.679 336.403C426.679 335.646 427.874 334.451 429.216 332.865C431.923 329.839 435.167 325.35 438.119 320.152Z" fill="#57848A"/>
<path d="M430.216 296.484C429.46 289.848 427.776 284.04 426.118 279.892C424.459 275.793 422.825 273.304 421.922 273.451C421.068 273.597 420.263 276.403 419.824 280.795C419.434 285.187 419.434 291.19 420.215 297.582C420.605 300.828 421.117 303.829 421.751 306.586C422.361 309.343 423.044 311.734 423.508 313.735C424.044 315.736 424.41 317.371 424.752 318.591C425.044 319.786 425.313 320.592 425.654 320.64C426.045 320.738 426.752 320.25 427.508 319.103C428.264 317.956 429.094 316.102 429.655 313.808C430.216 311.466 430.508 308.758 430.606 305.854C430.679 303.024 430.582 299.827 430.216 296.484Z" fill="#4C7378"/>
<path d="M388.968 264.496C385.114 260.787 380.918 258.201 377.576 256.712C374.234 255.224 371.795 254.907 371.234 255.614C370.697 256.273 371.576 258.567 373.478 261.519C375.381 264.472 378.332 268.156 382.016 271.67C385.723 275.208 389.602 277.867 392.7 279.624C395.798 281.381 398.139 282.162 398.603 281.722C399.213 281.186 398.749 278.77 397.164 275.476C395.627 272.255 392.87 268.205 388.968 264.496Z" fill="#689399"/>
<path d="M383.186 239.169C378.601 231.019 371.893 226.286 370.356 227.237C368.868 228.14 370.014 236.168 374.454 244.073C378.893 251.979 385.504 256.908 386.699 256.322C388.163 255.566 387.772 247.318 383.186 239.169Z" fill="#4C7378"/>
<path d="M400.213 254.76C399.408 249.222 397.456 244.415 395.456 241.267C393.456 238.071 391.504 236.46 390.699 236.778C389.894 237.07 389.455 239.486 389.407 243.024C389.358 246.562 389.602 251.174 390.309 256.176C391.017 261.178 392.163 265.667 393.212 269.059C394.31 272.45 395.407 274.695 396.017 274.695C396.822 274.744 398.212 272.646 399.31 269.059C400.408 265.448 401.018 260.299 400.213 254.76Z" fill="#57848A"/>
<path d="M451.291 285.382C455.877 282.235 459.731 278.892 462.341 276.086C464.975 273.329 466.39 271.133 465.927 270.303C465.488 269.547 462.878 269.596 459.097 270.645C455.34 271.694 450.413 273.792 445.608 277.086C440.802 280.38 437.168 284.333 434.826 287.481C432.533 290.677 431.582 293.117 431.972 293.63C432.509 294.24 435.07 293.727 438.607 292.288C442.168 290.921 446.705 288.53 451.291 285.382Z" fill="#689399"/>
<path d="M454.048 261.007C457.243 254.272 459.048 247.758 459.78 242.829C460.487 237.924 460.219 234.728 459.39 234.435C458.56 234.142 456.487 236.582 453.852 240.584C451.218 244.634 448.071 250.271 445.022 256.664C441.973 263.056 439.68 269.108 438.241 273.744C436.802 278.331 436.241 281.478 436.802 281.844C437.46 282.284 440.144 280.454 443.534 276.842C446.852 273.207 450.852 267.741 454.048 261.007Z" fill="#4C7378"/>
<path d="M445.231 262.502C447.38 250.69 446.921 240.713 444.204 240.218C441.487 239.723 437.541 248.898 435.392 260.711C433.242 272.523 433.702 282.5 436.418 282.995C439.135 283.489 443.081 274.315 445.231 262.502Z" fill="#689399"/>
<path d="M448.315 182.927C451.023 177.144 452.95 171.678 454.048 167.482C455.145 163.285 455.34 160.43 454.584 159.942C453.828 159.503 451.438 161.186 448.486 164.48C445.534 167.774 442.095 172.679 439.29 178.657C436.485 184.61 434.997 190.442 434.387 194.834C433.777 199.226 433.997 202.13 434.631 202.374C435.387 202.666 437.485 200.666 440.07 197.176C442.559 193.663 445.608 188.71 448.315 182.927Z" fill="#689399"/>
<path d="M440.656 182.927C441.046 176.924 440.851 171.434 440.314 167.335C439.778 163.285 438.924 160.601 438.07 160.479C437.216 160.332 435.582 162.626 434.07 166.53C432.533 170.434 431.118 175.973 430.679 182.219C430.24 188.466 431.069 194.2 432.118 198.25C433.167 202.3 434.509 204.789 435.167 204.789C435.972 204.789 437.168 202.252 438.217 198.299C439.265 194.322 440.266 188.954 440.656 182.927Z" fill="#4C7378"/>
<path d="M447.852 211.597C449.706 208.644 451.194 205.643 452.34 202.862C453.438 200.056 454.243 197.42 454.731 195.127C455.682 190.588 455.438 187.587 454.633 187.246C453.828 186.904 451.73 189.002 448.949 192.492C447.608 194.2 446.047 196.298 444.412 198.64C442.802 200.983 441.071 203.496 439.363 206.278C437.656 208.986 436.07 211.67 434.68 214.159C433.289 216.648 432.094 218.917 431.143 220.942C429.24 224.944 428.24 227.774 428.752 228.189C429.313 228.726 432.143 227.628 435.851 224.846C437.704 223.455 439.753 221.65 441.802 219.405C443.949 217.184 445.998 214.549 447.852 211.597Z" fill="#689399"/>
<path d="M425.386 207.742C424.825 204.74 424.24 201.934 423.679 199.397C423.435 198.104 423.117 196.908 422.874 195.761C422.727 195.2 422.581 194.663 422.483 194.102C422.386 193.565 422.239 193.053 422.142 192.565C421.239 188.661 420.532 185.928 419.556 185.782C418.751 185.635 416.97 187.978 415.8 192.418C415.653 192.955 415.507 193.565 415.361 194.126C415.214 194.736 415.165 195.371 415.068 195.981C414.873 197.323 414.775 198.689 414.726 200.129C414.678 203.032 414.921 206.229 415.483 209.474C416.727 215.964 419.019 221.308 420.922 225.066C422.874 228.823 424.557 231.117 425.166 231.019C425.971 230.873 426.752 228.116 426.874 223.772C427.118 219.527 426.532 213.744 425.386 207.742Z" fill="#4C7378"/>
<path d="M439.753 240.218C443.29 235.362 445.608 230.336 446.803 226.481C447.998 222.626 448.144 219.893 447.339 219.478C446.583 219.039 444.339 220.478 441.436 223.162C438.534 225.822 434.997 229.75 431.606 234.362C428.216 238.974 425.703 243.658 424.118 247.294C422.508 250.93 421.873 253.492 422.361 253.931C422.971 254.468 425.508 253.492 428.801 251.222C432.167 248.856 436.216 245.074 439.753 240.218Z" fill="#57848A"/>
<path d="M400.969 188.661C398.164 182.756 394.529 178.12 391.529 175.07C388.528 172.02 386.138 170.532 385.382 170.971C384.626 171.41 384.894 174.216 386.089 178.266C387.284 182.317 389.333 187.514 391.895 192.906C393.188 195.615 394.48 198.104 395.651 200.397C396.212 201.544 396.846 202.642 397.407 203.642C397.968 204.643 398.505 205.643 398.993 206.497C400.993 210.035 402.481 212.353 403.14 212.28C403.896 212.182 404.896 209.474 404.896 205.033C404.896 203.935 404.847 202.691 404.652 201.446C404.506 200.153 404.262 198.811 403.945 197.396C403.408 194.614 402.359 191.613 400.969 188.661Z" fill="#4C7378"/>
<path d="M400.749 210.352C393.748 201.52 385.309 196.81 383.967 198.006C382.674 199.153 386.114 208.01 392.919 216.599C399.749 225.188 407.945 230.238 408.994 229.482C410.335 228.579 407.75 219.185 400.749 210.352Z" fill="#4C7378"/>
<path d="M404.555 230.141C401.847 227.286 398.871 225.139 396.407 223.748C393.919 222.357 391.968 221.845 391.26 222.357C390.602 222.894 390.602 224.992 391.553 227.75C392.504 230.507 394.407 233.996 397.359 237.046C400.31 240.096 403.75 242.048 406.506 243.097C409.262 244.098 411.36 244.195 411.799 243.707C412.336 243.097 411.848 241.072 410.604 238.559C409.311 236.021 407.311 232.971 404.555 230.141Z" fill="#689399"/>
<path d="M409.994 256.712C406.75 250.808 403.359 245.61 400.652 241.926C397.944 238.242 395.798 236.119 395.066 236.338C394.407 236.582 394.505 239.437 395.602 243.78C396.7 248.124 398.847 253.98 402.188 260.055C405.53 266.106 409.482 271.157 412.726 274.598C415.97 278.038 418.507 279.892 418.971 279.648C419.58 279.307 418.971 276.55 417.385 272.353C415.751 268.156 413.287 262.642 409.994 256.712Z" fill="#689399"/>
<path d="M425.045 264.862C425.093 260.421 424.044 256.468 422.752 253.76C421.459 251.052 419.946 249.514 419.044 249.661C418.19 249.807 417.239 251.662 416.458 254.394C415.702 257.152 415.068 260.738 415.019 264.691C414.97 268.644 415.556 272.28 416.263 275.037C416.97 277.794 417.873 279.722 418.556 279.795C419.361 279.941 420.898 278.502 422.313 275.842C423.776 273.207 425.02 269.303 425.045 264.862Z" fill="#4C7378"/>
<path d="M428.972 280.698C431.021 276.208 431.679 271.694 431.606 268.351C431.46 265.008 430.606 262.91 429.752 262.715C428.899 262.52 427.313 264.106 425.508 266.619C423.703 269.156 421.703 272.572 419.873 276.55C418.068 280.502 416.873 284.333 416.19 287.383C415.483 290.433 415.336 292.678 415.848 293.068C416.458 293.556 418.654 292.824 421.288 290.726C423.874 288.676 426.874 285.236 428.972 280.698Z" fill="#689399"/>
<path d="M415.946 203.301C416.141 196.103 415.287 189.612 414.092 184.976C412.946 180.292 411.506 177.534 410.604 177.583C409.75 177.632 408.653 180.536 407.75 185.172C406.847 189.808 406.091 196.103 405.896 203.057C405.701 210.011 406.238 216.355 406.896 221.04C407.604 225.724 408.506 228.677 409.189 228.774C409.994 228.872 411.58 226.139 412.994 221.576C414.482 216.94 415.751 210.499 415.946 203.301Z" fill="#689399"/>
<path d="M452.364 330.693C452.267 331.547 436.241 332.279 416.458 332.279C396.724 332.279 380.65 331.572 380.552 330.693C380.552 330.791 380.552 330.937 380.552 331.035L386.601 395.085L387.602 405.821C387.65 407.724 400.53 409.261 416.409 409.261C432.338 409.261 445.217 407.724 445.217 405.821L445.412 403.576C445.412 403.527 445.412 403.478 445.412 403.43L445.9 398.476L452.291 331.035C452.364 330.937 452.364 330.791 452.364 330.693Z" fill="#DEC7B2"/>
<path d="M447.9 378.273L448.193 375.418C448.096 375.467 447.998 375.516 447.852 375.516C437.07 379.518 426.337 383.519 415.58 387.545C409.384 389.839 403.188 392.181 397.042 394.45C396.139 394.792 395.749 395.89 396.48 396.598C402.213 402.38 410.775 402.551 418.214 404.552C420.556 405.162 422.898 406.04 424.898 407.309H428.996C424.239 402.673 416.97 401.575 410.506 400.209C406.799 399.404 402.969 398.403 399.92 396.11C410.653 392.108 421.337 388.155 432.045 384.129C437.314 382.25 442.607 380.298 447.9 378.273Z" fill="#EBDBCD"/>
<path d="M419.849 352.775C430.24 349.872 440.68 346.992 451.072 344.138L451.559 338.989C429.386 339.477 407.213 340.478 385.04 341.99C383.894 342.088 382.747 342.137 381.601 342.234L381.845 344.821C401.018 343.479 420.215 342.478 439.387 341.917C443.071 341.82 446.778 341.722 450.437 341.624C440.753 344.284 431.07 346.919 421.41 349.628C409.262 353.019 397.139 356.63 385.699 361.974C384.992 362.316 384.26 362.633 383.552 362.974L383.845 365.732C384.406 365.439 385.04 365.17 385.601 364.878C396.602 359.632 408.238 356.02 419.849 352.775Z" fill="#EBDBCD"/>
<path d="M393.261 374.955C405.457 374.76 417.483 372.198 429.362 369.562C435.899 368.123 442.485 366.61 449.096 365.463L449.34 362.828C433.167 365.683 417.263 370.514 400.896 371.978C395.456 372.466 389.919 372.539 384.504 372.076L384.748 374.711C387.577 374.906 390.382 375.004 393.261 374.955Z" fill="#EBDBCD"/>
<path d="M444.168 330.644C444.168 331.303 432.143 331.84 417.336 331.84C402.53 331.84 390.504 331.303 390.504 330.644H380.674C380.674 330.644 380.674 330.644 380.674 330.693C380.772 331.547 396.798 332.279 416.58 332.279C436.314 332.279 452.389 331.572 452.486 330.693C452.486 330.693 452.486 330.693 452.486 330.644H444.168Z" fill="#E8D4C1"/>
<path d="M271.858 153.452C268.004 167.701 264.223 182.268 257.612 195.517C255.856 199.055 252.661 208.01 247.636 207.668C242.733 207.327 238.586 204.13 236.439 199.885C234.342 195.688 228.39 194.492 224.511 196.737C220.218 199.275 219.267 204.472 221.365 208.669C225.267 216.55 232.902 221.918 241.294 224.114C252.49 227.018 261.369 222.455 267.613 213.134C278.541 196.835 283.591 176.754 288.689 158.039C291.64 147.205 274.809 142.594 271.858 153.452Z" fill="#F0A173"/>
<path d="M275.248 347.578C276.395 354.361 277.834 361.071 279.493 367.757C282.493 379.542 301.714 374.54 298.714 362.755C297.007 356.069 295.616 349.359 294.47 342.576C293.616 337.574 286.981 334.744 282.225 335.988C276.541 337.452 274.395 342.527 275.248 347.578Z" fill="#E3996D"/>
<path d="M343.28 209.108C343.28 209.108 349.012 223.309 349.012 224.602C349.012 225.895 322.546 229.604 311.716 228.994C303.373 228.506 284.396 225.505 285.493 223.699C286.591 221.894 292.274 207.717 292.274 207.717C292.274 207.717 306.105 211.206 317.253 210.865C328.4 210.523 343.28 209.108 343.28 209.108Z" fill="#E3996D"/>
<path d="M285.444 223.724C285.444 223.724 293.128 226.261 297.543 226.871C316.472 229.58 328.717 228.018 328.717 228.018C328.717 228.018 272.541 258.786 270.687 262.788C268.833 266.79 286.567 280.673 291.762 296.265C296.397 310.148 299.495 344.674 300.105 352.116C300.202 353.019 299.665 353.824 298.86 354.215C297.007 355.069 293.226 356.557 287.567 357.606C279.176 359.144 273.736 360.656 273.59 358.753C273.443 356.85 242.269 298.998 241.123 297.094C239.976 295.191 222.096 267.278 221.34 260.177C219.12 238.778 285.444 223.724 285.444 223.724Z" fill="#FCFF67"/>
<path d="M305.008 120.878C305.008 120.878 289.835 123.928 283.127 129.564C277.127 134.615 266.15 155.989 263.857 160.576C263.564 161.113 263.711 161.723 264.101 162.162C265.589 163.651 269.199 167.018 272.541 168.75C276.834 170.995 285.42 172.703 285.42 172.703L287.372 159.722C287.372 159.722 282.639 168.311 285.786 177.559C287.64 182.951 288.981 190.149 289.274 193.687C289.421 195.688 288.981 207.034 288.981 207.034C288.981 207.034 300.519 210.035 312.96 210.889C325.351 211.743 346.475 207.742 346.475 207.742C346.475 207.742 345.426 181.414 346.085 176.656C347.378 167.116 344.646 160.162 344.646 160.162L348.28 174.655C348.28 174.655 360.769 176.241 363.16 174.997C365.453 173.801 369.404 170.41 371.112 168.946C371.649 168.506 371.819 167.799 371.673 167.14C370.478 162.284 365.038 142.252 356.037 132.272C351.403 127.173 334.45 121.878 330.474 121.878C326.449 121.805 305.008 120.878 305.008 120.878Z" fill="white"/>
<path d="M343.085 36.3316C351.033 36.3316 357.476 30.2686 357.476 22.7896C357.476 15.3105 351.033 9.24756 343.085 9.24756C335.136 9.24756 328.693 15.3105 328.693 22.7896C328.693 30.2686 335.136 36.3316 343.085 36.3316Z" fill="url(#paint1_linear_8_179)"/>
<path d="M279.444 368.977C279.444 368.977 286.64 370.319 289.835 369.27C294.738 367.659 299.568 363.877 299.568 363.877C299.568 363.877 305.666 370.416 307.349 371.978C309.032 373.54 311.155 374.613 312.838 377.566C314.521 380.518 314.643 388.765 303.251 396.5C299.153 399.306 294.006 417.338 283.883 420.924C277.102 423.316 271.736 424.072 267.15 421.974C262.466 419.826 261.296 414.727 270.687 407.773C280.078 400.819 277.932 392.694 278.932 387.594C279.932 382.47 279.444 368.977 279.444 368.977Z" fill="#AB534D"/>
<path d="M202.972 363.121C202.021 370.66 201.021 378.2 200.07 385.715C199.411 390.766 205.119 395.109 210.046 395.109C215.949 395.109 219.34 390.766 220.023 385.715C220.974 378.176 221.974 370.636 222.926 363.121C223.584 358.07 217.876 353.727 212.949 353.727C207.022 353.727 203.631 358.07 202.972 363.121Z" fill="#FCB58A"/>
<path d="M247.27 192.37C253.002 193.516 257.368 197.225 261.515 201.202C264.467 204.008 268.565 199.348 265.613 196.469C260.661 191.735 255.222 187.514 248.441 186.172C244.489 185.367 243.269 191.564 247.27 192.37Z" fill="#FCB58A"/>
<path d="M328.229 101.48L305.008 101.333C305.008 101.333 306.715 123.464 306.715 123.61C306.715 127.514 311.911 130.662 318.35 130.662C324.79 130.662 329.986 127.514 329.986 123.61C329.937 123.513 328.229 101.48 328.229 101.48Z" fill="#FCB58A"/>
<path d="M317.399 105.384C313.106 105.384 308.959 104.676 305.154 103.432L305.447 107.872C308.081 109.117 312.228 110.02 316.423 110.312C320.107 110.556 325.302 110.703 328.815 109.654L328.425 103.871C324.888 104.871 321.204 105.384 317.399 105.384Z" fill="#E3996D"/>
<path d="M349.354 224.529C349.354 224.529 359.501 235.68 361.33 243.512C363.136 251.344 364.331 263.203 361.721 270.132C359.086 277.038 350.842 287.066 335.84 287.969C311.057 289.457 259.369 280.429 257.076 280.429C254.783 280.429 255.685 295.557 247.928 316.688C240.976 335.476 228.56 366.708 225.95 373.247C225.658 374.003 224.95 374.491 224.145 374.54C221.438 374.686 214.998 374.833 208.461 373.784C203.875 373.076 200.509 371.148 198.679 369.977C197.826 369.416 197.386 368.391 197.484 367.391C198.289 360.144 201.777 330.01 203.924 317.639C206.217 304.61 207.875 254.443 216.169 244.293C223.414 235.411 226.048 234.46 234.195 231.898C241.537 229.604 319.96 228.896 319.96 228.896L349.354 224.529Z" fill="#FCFF67"/>
<path d="M198.191 389.351C195.801 393.792 191.093 399.94 187.215 402.502C178.116 408.602 166.53 416.85 164.798 418.582C163.09 420.29 159.163 427.683 165.139 431.66C169.432 434.466 181.824 435.564 197.46 427.854C209.241 422.047 215.096 420.802 219.389 419.168C226.536 416.532 224.926 408.724 223.438 404.918C222.292 401.917 221.95 401.331 221.145 393.572C220.95 391.913 220.291 385.13 220.291 385.13C220.291 385.13 214.242 387.179 207.607 386.374C202.753 385.764 200.021 382.519 200.021 382.519C200.021 382.519 199.07 387.765 198.191 389.351Z" fill="#C7645D"/>
<path d="M357.598 297.021H269.638C268.15 297.021 266.979 295.826 266.979 294.362V285.626C266.979 284.138 268.174 282.967 269.638 282.967H357.598C359.086 282.967 360.257 284.162 360.257 285.626V294.362C360.257 295.826 359.062 297.021 357.598 297.021Z" fill="#AB8868"/>
<path d="M179.897 158.698L226.902 163.382C227.999 163.48 229.048 164.09 229.805 165.042L279.859 227.188C280.42 227.896 279.956 229.092 279.2 228.994L230 223.553C229.097 223.455 228.292 222.992 227.658 222.162L179.409 160.04C178.994 159.527 179.311 158.6 179.897 158.698Z" fill="#D7D7E6"/>
<path d="M351.525 171.068C351.72 171.971 351.915 172.874 352.086 173.777C352.134 174.167 352.525 176.217 352.378 175.387C352.281 174.68 352.574 176.924 352.622 177.437C352.72 178.388 352.769 179.34 352.817 180.292C352.866 182.048 352.817 183.83 352.72 185.635C352.671 186.172 352.622 186.733 352.574 187.246C352.574 187.099 352.769 185.904 352.622 186.953C352.427 188.002 352.232 189.1 351.964 190.149C351.769 190.954 351.476 191.735 351.256 192.492C350.72 194.248 351.403 192.54 350.768 193.785C350.378 194.492 350.012 195.273 349.622 195.932C349.378 196.322 347.768 198.64 348.622 197.542C345.963 200.885 343.938 202.349 339.84 204.228C323.717 211.621 302.471 205.765 285.762 201.788C278.371 200.031 270.98 198.104 263.735 195.834C253.002 192.443 248.441 209.279 259.1 212.67C277.127 218.404 296.104 222.821 314.935 224.553C336.523 226.505 360.477 219.454 368.087 197.079C371.429 187.246 370.673 176.388 368.478 166.408C365.99 155.428 349.159 160.088 351.525 171.068Z" fill="#FCB58A"/>
<path d="M346.207 165.725C347.793 164.676 365.233 152.232 365.233 152.232L371.429 168.531C371.429 168.531 369.673 171.63 362.697 175.168C355.647 178.706 349.012 177.876 349.012 177.876L346.207 165.725Z" fill="white"/>
<path d="M335.523 228.726C336.011 233.118 336.425 237.558 336.913 241.926C337.352 245.879 337.913 249.88 338.06 253.906C338.157 257.249 337.718 260.812 335.255 263.3C333.059 265.496 329.913 266.253 326.912 266.497C323.326 266.79 319.765 266.497 316.179 266.35C311.837 266.155 307.496 265.96 303.154 265.789C294.372 265.399 285.615 265.033 276.883 264.691C272.638 264.496 268.394 264.301 264.15 264.154C260.71 264.008 257.246 263.959 253.807 264.301C247.123 264.96 240.611 267.156 236.366 272.646C231.975 278.331 230.683 285.626 229.219 292.434C227.365 301.072 225.511 309.66 223.633 318.274C221.755 326.887 219.925 335.5 218.047 344.113C216.462 351.311 215.047 358.607 213.193 365.707C212.9 366.805 212.632 367.952 212.291 369.05C211.803 370.66 214.291 371.344 214.779 369.709C216.584 363.56 217.876 357.314 219.218 351.067C221.072 342.43 222.926 333.841 224.804 325.228C226.658 316.541 228.561 307.879 230.439 299.193C231.293 295.191 232.097 291.19 233.073 287.212C233.878 283.772 234.829 280.38 236.513 277.233C238.098 274.232 240.269 271.694 243.245 269.986C246.099 268.278 249.343 267.4 252.636 266.985C260.076 265.984 267.857 266.838 275.321 267.18C284.103 267.57 292.86 267.936 301.593 268.278C306.032 268.473 310.423 268.668 314.838 268.839C318.521 268.986 322.278 269.327 325.937 269.132C329.034 268.986 332.279 268.473 334.986 266.79C337.791 265.13 339.67 262.3 340.328 259.104C341.084 255.517 340.67 251.857 340.279 248.27C339.792 243.878 339.377 239.437 338.889 235.07C338.645 232.922 338.45 230.824 338.23 228.677C337.889 227.091 335.328 227.042 335.523 228.726Z" fill="white"/>
<path d="M69.8122 431.172C67.4217 430.318 66.1777 427.732 66.9582 425.365L124.452 236.826C125.257 234.386 127.94 233.069 130.355 233.923L136.356 236.07C138.795 236.924 140.039 239.657 139.112 242.024L75.6908 428.464C74.8127 430.806 72.1783 432.026 69.8122 431.172Z" fill="#8A6645"/>
<path d="M367.892 431.172C370.283 430.318 371.527 427.732 370.746 425.365L313.301 236.826C312.496 234.386 309.813 233.069 307.398 233.923L301.397 236.07C298.958 236.924 297.714 239.657 298.641 242.024L362.111 428.415C362.892 430.806 365.502 432.026 367.892 431.172Z" fill="#8A6645"/>
<path d="M377.332 243.317H60.421C57.8353 243.317 55.7375 241.218 55.7375 238.632V228.384C55.7375 225.798 57.8353 223.699 60.421 223.699H377.332C379.918 223.699 382.016 225.798 382.016 228.384V238.632C381.967 241.218 379.893 243.317 377.332 243.317Z" fill="#C49C77"/>
<path d="M98.1322 406.626C69.0072 402.99 55.9327 421.754 55.8839 421.803C55.8839 421.754 57.2743 422.803 57.2743 418.85L56.6157 412.946C56.6157 412.946 54.1276 413.702 53.1763 414.092C50.2248 415.337 47.5416 418.826 46.7366 418.777C45.9804 418.728 43.1996 416.24 38.8577 415.068C34.5158 413.873 29.4177 415.02 28.9299 414.678C28.4908 414.385 28.6371 412.872 27.9785 410.92C27.1736 408.627 25.0758 406.016 25.0758 406.016C24.9782 406.114 18.441 418.606 17.075 421.144C15.709 423.682 13.3673 427.586 13.0258 435.979C12.5379 447.179 20.0753 442.665 20.0753 442.665L14.8308 437.809H7.29345H5.09809C2.29292 437.809 0 440.566 0 443.909C0 447.252 2.29292 450.009 5.09809 450.009H7.29345H14.8308H132.063L132.16 439.517C132.16 439.371 132.843 410.945 98.1322 406.626Z" fill="#FCFF58"/>
<path d="M125.964 454.743H20.0753C16.6847 454.743 13.9771 451.986 13.9771 448.643C13.9771 445.251 16.7335 442.543 20.0753 442.543H125.964C129.355 442.543 132.063 445.3 132.063 448.643C132.063 451.961 129.306 454.743 125.964 454.743Z" fill="#FCFF58"/>
<path d="M108.67 421.73C102.181 420.534 95.3271 420.973 89.546 424.389C85.448 426.829 82.155 430.587 80.3987 435.028C79.7889 436.614 79.3498 438.273 79.301 439.932C75.3981 439.688 71.2026 439.688 67.5681 441.225C65.6654 442.03 64.0311 443.324 63.2749 445.324C62.5675 447.13 62.5675 449.326 63.3725 451.132C64.275 453.23 66.1777 454.572 68.4706 454.572C69.3731 454.572 69.3731 453.132 68.4706 453.132C64.7629 453.084 63.4701 448.789 64.6653 445.837C66.1045 442.201 70.9099 441.542 74.3005 441.347C76.2519 441.25 78.1545 441.298 80.106 441.445C80.4962 441.494 80.8133 441.103 80.8133 440.737C80.6182 437.297 82.3501 433.686 84.4479 430.904C87.497 426.854 92.034 424.121 96.937 423.072C100.693 422.266 104.621 422.413 108.377 423.12C109.182 423.267 109.572 421.876 108.67 421.73Z" fill="black"/>
<path d="M118.866 453.206C123.623 454.304 128.648 454.499 133.453 455.402C136.258 455.938 142.186 457.256 137.039 459.598C130.55 462.551 121.744 460.55 114.866 460.94C107.28 461.428 98.986 463.38 93.9367 469.48C88.7898 475.678 90.7412 489.074 100.937 487.927C107.036 487.219 109.719 481.022 105.792 476.19C105.596 475.946 105.401 475.702 105.231 475.483C105.84 476.581 106.475 477.63 107.133 478.728C106.694 477.532 105.987 479.07 107.328 478.435C108.914 477.679 110.231 476.678 111.914 476.093C115.451 474.897 119.159 474.556 122.793 474.19C130.331 473.482 139.917 473.58 145.918 468.236C151.87 462.941 152.772 453.45 145.82 448.496C139.137 443.763 126.282 444.3 118.842 446.74C115.915 447.764 115.524 452.4 118.866 453.206Z" fill="#FCFF58"/>
<path d="M21.4657 427.61C21.7584 429.318 23.2707 430.66 24.905 431.05C26.6125 431.441 28.5884 430.904 29.7592 429.562C30.2471 429.001 29.4177 428.171 28.9542 428.757C28.0517 429.806 26.5638 430.245 25.2465 429.952C23.9537 429.66 22.856 428.659 22.6121 427.317C22.417 426.561 21.3193 426.829 21.4657 427.61Z" fill="black"/>
<path d="M37.7113 431.465C37.7113 433.173 39.3212 434.466 40.9067 434.759C42.8094 435.101 44.6632 434.222 46.1024 433.051C46.6634 432.563 45.8585 431.758 45.2974 432.246C44.1998 433.198 42.7606 433.856 41.297 433.686C40.1993 433.539 38.8577 432.734 38.8577 431.49C38.8577 430.709 37.7113 430.709 37.7113 431.465Z" fill="black"/>
<path d="M32.418 438.907C31.3204 438.004 30.0275 437.468 28.6615 437.297C28.4176 437.248 28.1249 437.443 28.0517 437.638C27.9054 437.882 27.9541 438.126 28.0517 438.346C28.1005 438.395 28.1493 438.492 28.1493 438.541C28.1005 438.346 28.1493 438.59 28.1981 438.639C28.2469 438.736 28.2469 438.834 28.2956 438.98C28.2956 439.029 28.3444 439.078 28.3444 439.176V439.224C28.3444 439.322 28.3444 439.42 28.3932 439.566C28.442 440.103 28.442 440.566 28.4908 441.103C28.4908 441.152 28.4908 441.152 28.4908 441.201V441.25V441.298C28.5884 441.591 28.9786 441.786 29.247 441.738C29.2958 441.738 29.2958 441.738 29.2958 441.738C29.3933 441.689 29.5397 441.64 29.6373 441.542C29.686 441.494 29.7348 441.445 29.7348 441.445C29.8324 441.347 29.9788 441.298 30.0763 441.25C30.1251 441.201 30.2227 441.201 30.2715 441.152C30.3203 441.152 30.3203 441.103 30.369 441.103C30.5154 441.054 30.6618 441.006 30.7593 440.957C31.3204 440.713 31.9546 440.469 32.3693 440.054C32.662 439.664 32.7108 439.151 32.418 438.907ZM30.369 441.006C30.4178 441.006 30.4178 441.006 30.369 441.006C30.5154 440.957 30.4178 441.006 30.369 441.006Z" fill="black"/>
<path d="M229.487 50.386C225.78 39.406 216.193 30.5976 204.802 27.0108C193.41 23.424 180.482 25.01 170.091 30.7684C164.993 33.5744 160.358 37.5028 157.504 42.456C154.65 47.4092 153.748 53.558 155.846 58.9016C158.382 65.3432 164.725 69.5888 171.14 72.59C178.043 75.8352 187.483 77.9824 196.264 75.7864C203.509 80.2272 210.754 84.7168 217.998 89.1332C216.657 84.18 212.656 74.3468 212.51 74.298L213.461 74.2004C218.706 72.346 223.462 69.1008 226.902 64.8552C228.561 62.8056 230 60.4144 230.439 57.8036C230.853 55.3148 230.292 52.7772 229.487 50.386Z" fill="#FCFAF8"/>
<path d="M177.945 20.0568C175.092 11.5168 166.164 6.61238 157.529 3.87958C137.844 -2.29362 115.915 -1.07362 97.0345 7.31998C88.2044 11.224 79.6425 17.1532 75.764 26.0104C72.4222 33.7452 73.1296 42.8952 77.0081 50.386C80.8865 57.8768 87.5945 63.684 95.2295 67.1732C92.5707 74.0052 88.4971 82.35 85.887 89.1576C91.2779 85.9612 96.7174 82.7648 102.108 79.5684C104.865 77.958 107.694 76.2744 110.792 75.3228C114.988 74.0296 119.476 74.1272 123.867 73.8344C136.161 73.1268 148.43 69.4424 158.48 62.342C168.481 55.1928 176.165 44.408 178.409 32.3056C179.092 28.2552 179.214 23.9852 177.945 20.0568Z" fill="white"/>
<path d="M161.968 105.335C161.578 102.236 159.334 99.6984 156.919 97.7464C149.967 92.3052 140.576 90.5484 131.843 91.9392C128.599 92.476 125.355 93.4276 122.647 95.282C117.061 99.1372 114.646 106.872 116.842 113.265C117.134 114.168 118.232 115.119 118.232 115.119C115.524 120.268 113.939 124.074 111.646 129.369C116.988 125.318 122.793 121.78 128.965 118.828L129.721 119.218C137.014 123.659 146.649 121.512 153.992 117.169C158.236 114.631 162.578 110.386 161.968 105.335Z" fill="white"/>
<path d="M289.079 153.5C289.079 153.5 286.225 161.796 285.542 164.749C284.786 168.189 284.786 172.581 284.786 172.581L281.981 171.971C281.981 171.971 282.688 167.53 284.518 162.821C285.445 160.381 289.079 153.5 289.079 153.5Z" fill="#E0E0E0"/>
<path d="M344.621 158.795C344.621 158.795 345.719 166.847 345.914 168.58C346.353 172.166 346.207 177.632 346.207 177.632L349.012 177.827C349.012 177.827 348.402 171.044 347.109 166.579C346.524 164.432 344.621 158.795 344.621 158.795Z" fill="#E0E0E0"/>
<path d="M336.23 107.287C332.23 107.287 329.034 101.65 329.034 94.5012C329.034 87.352 332.181 81.7156 336.23 81.7156C340.231 81.7156 343.426 87.352 343.426 94.5012C343.426 101.724 340.279 107.287 336.23 107.287ZM336.23 83.4968C333.279 83.4968 330.791 88.5476 330.791 94.55C330.791 100.552 333.279 105.603 336.23 105.603C339.182 105.603 341.67 100.552 341.67 94.55C341.67 88.5476 339.182 83.4968 336.23 83.4968Z" fill="white"/>
<path d="M367.404 109.922C370.551 108.434 370.307 106.921 369.551 104.188L354.061 60.5608C349.427 45.1156 334.376 33.7452 316.497 33.7452C304.861 33.7452 298.178 38.6496 298.178 38.6496C298.275 38.6496 305.715 40.4552 311.252 45.6524C316.838 50.8984 313.496 57.2424 320.18 63.5376C324.668 67.7344 332.474 69.8328 332.474 69.8328C332.474 70.4428 333.718 100.162 334.23 112.752C334.425 117.193 336.938 116.754 345.817 115.51C357.598 113.875 362.209 112.338 367.404 109.922Z" fill="url(#paint2_linear_8_179)"/>
<path d="M311.813 59.17C307.227 59.17 303.276 61.7564 301.275 65.5628C299.617 64.7088 297.787 64.2696 295.885 64.2696C295.275 64.2696 294.641 64.3184 294.031 64.416C292.543 59.5116 288.03 55.9248 282.639 55.9248C276.053 55.9248 270.711 61.2684 270.711 67.8564C270.711 74.4444 276.053 79.788 282.639 79.788C289.225 79.788 294.567 74.4444 294.567 67.8564C294.567 67.3196 294.519 66.7584 294.421 66.246C296.519 65.9532 298.714 66.2948 300.568 67.2952C300.129 68.4908 299.909 69.784 299.909 71.1016C299.909 77.6896 305.251 83.0332 311.838 83.0332C318.424 83.0332 323.766 77.6896 323.766 71.1016C323.766 64.5136 318.399 59.17 311.813 59.17ZM282.639 77.9092C277.053 77.9092 272.59 73.3708 272.59 67.8564C272.59 62.2688 277.127 57.8036 282.639 57.8036C288.225 57.8036 292.689 62.342 292.689 67.8564C292.689 73.3952 288.176 77.9092 282.639 77.9092ZM311.813 81.1544C306.227 81.1544 301.763 76.616 301.763 71.1016C301.763 65.514 306.3 61.0488 311.813 61.0488C317.399 61.0488 321.863 65.5872 321.863 71.1016C321.936 76.616 317.399 81.1544 311.813 81.1544Z" fill="#E0E0E0"/>
<path d="M252.978 212.402L243.489 211.45C237.537 210.84 232.902 206.4 233.293 201.52L233.439 199.86C233.829 195.054 239.025 191.564 244.977 192.174L254.466 193.126C260.417 193.736 265.052 198.177 264.662 203.057L264.516 204.716C264.15 209.596 258.954 213.036 252.978 212.402Z" fill="#FCB58A"/>
<path d="M128.916 108.97C130.384 108.97 131.575 107.834 131.575 106.433C131.575 105.031 130.384 103.895 128.916 103.895C127.448 103.895 126.257 105.031 126.257 106.433C126.257 107.834 127.448 108.97 128.916 108.97Z" fill="#D6D7F0"/>
<path d="M138.185 108.97C139.654 108.97 140.844 107.834 140.844 106.433C140.844 105.031 139.654 103.895 138.185 103.895C136.717 103.895 135.526 105.031 135.526 106.433C135.526 107.834 136.717 108.97 138.185 108.97Z" fill="#D6D7F0"/>
<path d="M146.796 108.97C148.264 108.97 149.455 107.834 149.455 106.433C149.455 105.031 148.264 103.895 146.796 103.895C145.327 103.895 144.137 105.031 144.137 106.433C144.137 107.834 145.327 108.97 146.796 108.97Z" fill="#D6D7F0"/>
<path d="M192.776 61.4147C192.679 61.9759 192.581 62.6103 192.776 63.1715C192.923 63.6595 193.167 64.1231 193.532 64.4647C193.825 64.7575 194.093 64.9527 194.484 65.0747C194.825 65.2699 195.191 65.3675 195.63 65.3187C196.167 65.3187 196.679 65.1723 197.118 64.9283C197.118 64.9283 197.167 64.9283 197.167 64.8795C196.923 64.9771 196.679 65.0747 196.46 65.1723H196.508C196.216 65.2211 195.972 65.2699 195.703 65.2699C195.703 65.2699 195.703 65.2699 195.752 65.2699C196.045 65.2211 196.289 65.1723 196.557 65.1723C196.801 65.0747 197.045 64.9771 197.265 64.8795C197.46 64.7331 197.704 64.5379 197.874 64.3915C198.021 64.1963 198.216 63.9523 198.362 63.7815C198.46 63.5375 198.557 63.2935 198.655 63.0739C198.704 62.7811 198.753 62.5371 198.753 62.2687C198.704 61.9759 198.655 61.7319 198.655 61.4635C198.557 61.0731 198.362 60.7071 198.094 60.4143C197.948 60.1703 197.752 59.9751 197.533 59.8531C197.338 59.6579 197.094 59.5115 196.874 59.4627C196.63 59.3163 196.386 59.2675 196.118 59.2675C195.825 59.1699 195.581 59.1699 195.313 59.2675C195.02 59.2675 194.776 59.3163 194.557 59.4627C194.313 59.5603 194.069 59.6579 193.898 59.8531C193.654 59.9995 193.459 60.1947 193.337 60.4143C193.045 60.7071 192.849 61.0243 192.776 61.4147Z" fill="#D6D7F0"/>
<path d="M185.8 43.92C186.995 42.0656 190.093 41.0652 192.24 41.2848C193.24 41.3824 195.289 41.8948 195.874 42.8708C196.313 43.5296 196.411 42.7732 195.679 43.5296C195.24 43.9688 194.435 44.2372 193.923 44.5788C190.532 46.8236 187.02 53.2164 192.118 55.7296C194.118 56.73 196.752 55.5344 196.704 53.0944C196.704 51.9964 196.313 51.2888 196.899 50.3372C197.289 49.7272 198.24 49.2392 198.801 48.8488C200.387 47.702 201.899 46.5064 202.241 44.4568C202.802 40.7724 199.533 37.9664 196.386 36.7708C192.947 35.4776 189.093 35.9168 186.093 38.0152C184.483 39.162 181.287 42.822 184.239 44.3104C184.8 44.6276 185.458 44.4812 185.8 43.92Z" fill="#D6D7F0"/>
<path d="M150.723 223.724H142.771C137.38 223.724 132.892 219.478 132.624 214.086L131.331 190.662C131.282 189.808 131.989 189.051 132.868 189.051H160.627C161.48 189.051 162.212 189.808 162.163 190.662L160.87 214.086C160.578 219.478 156.09 223.724 150.723 223.724Z" fill="#FF5856"/>
<path d="M161.871 194.322L161.675 197.908C164.968 198.567 167.408 201.495 167.408 204.96C167.408 208.718 164.505 211.792 160.822 212.109L160.627 215.696C166.408 215.452 170.969 210.743 170.969 204.96C170.92 199.592 167.017 195.151 161.871 194.322Z" fill="#FF5856"/>
<path d="M148.796 183.561C148.796 183.561 141.966 177.266 142.21 172.63C142.552 165.578 148.894 162.894 146.454 156.233C145.308 153.086 140.551 142.838 140.551 142.838C140.551 142.838 148.43 150.621 151.187 155.428C153.723 159.771 153.431 166.676 150.65 169.97C144.698 177.168 148.796 183.561 148.796 183.561Z" fill="#DCDCED"/>
<path d="M155.382 27.6452H97.1321C95.7905 27.6452 94.6928 26.5472 94.6928 25.2052C94.6928 23.8632 95.7905 22.7652 97.1321 22.7652H155.382C156.724 22.7652 157.821 23.8632 157.821 25.2052C157.821 26.5472 156.724 27.6452 155.382 27.6452Z" fill="#D6D7F0"/>
<path d="M136.307 51.118H97.1321C95.7905 51.118 94.6928 50.02 94.6928 48.678C94.6928 47.336 95.7905 46.238 97.1321 46.238H136.331C137.673 46.238 138.771 47.336 138.771 48.678C138.746 50.02 137.649 51.118 136.307 51.118Z" fill="#D6D7F0"/>
<path d="M122.72 39.0888H97.1077C95.7661 39.0888 94.6684 37.9908 94.6684 36.6488C94.6684 35.3068 95.7661 34.2088 97.1077 34.2088H122.72C124.062 34.2088 125.159 35.3068 125.159 36.6488C125.159 38.0396 124.062 39.0888 122.72 39.0888Z" fill="#D6D7F0"/>
<path d="M150.577 39.0888H134.502C133.16 39.0888 132.063 37.9908 132.063 36.6488C132.063 35.3068 133.16 34.2088 134.502 34.2088H150.577C151.918 34.2088 153.016 35.3068 153.016 36.6488C152.992 38.0396 151.894 39.0888 150.577 39.0888Z" fill="#D6D7F0"/>
</g>
<defs>
<linearGradient id="paint0_linear_8_179" x1="292.267" y1="33.6404" x2="292.267" y2="116.222" gradientUnits="userSpaceOnUse">
<stop stop-color="#F4BC2D"/>
<stop offset="1" stop-color="#F42DB1"/>
</linearGradient>
<linearGradient id="paint1_linear_8_179" x1="343.085" y1="9.24756" x2="343.085" y2="36.3316" gradientUnits="userSpaceOnUse">
<stop stop-color="#F4BC2D"/>
<stop offset="1" stop-color="#F42DB1"/>
</linearGradient>
<linearGradient id="paint2_linear_8_179" x1="334.106" y1="33.7452" x2="334.106" y2="116.356" gradientUnits="userSpaceOnUse">
<stop stop-color="#F4BC2D"/>
<stop offset="1" stop-color="#F42DB1"/>
</linearGradient>
<clipPath id="clip0_8_179">
<rect width="466" height="488" fill="white"/>
</clipPath>
</defs>
</svg>
