<svg width="295" height="55" viewBox="0 0 295 55" fill="none" xmlns="http://www.w3.org/2000/svg">
<path d="M12.048 45V31.656C9.84 28.232 7.76 24.856 5.808 21.528C3.856 18.2 2.016 14.936 0.288 11.736H5.76C6.976 14.36 8.336 17.032 9.84 19.752C11.344 22.44 12.896 25.032 14.496 27.528C16.064 25.032 17.6 22.44 19.104 19.752C20.608 17.032 21.984 14.36 23.232 11.736H28.416C26.688 14.936 24.848 18.2 22.896 21.528C20.944 24.824 18.88 28.168 16.704 31.56V45H12.048ZM52.2158 32.52C52.2158 34.504 51.9278 36.296 51.3518 37.896C50.7758 39.496 49.9598 40.872 48.9038 42.024C47.8798 43.176 46.6478 44.072 45.2078 44.712C43.7678 45.32 42.1998 45.624 40.5038 45.624C38.8078 45.624 37.2398 45.32 35.7998 44.712C34.3598 44.072 33.1118 43.176 32.0558 42.024C31.0318 40.872 30.2318 39.496 29.6558 37.896C29.0798 36.296 28.7918 34.504 28.7918 32.52C28.7918 30.568 29.0798 28.792 29.6558 27.192C30.2318 25.56 31.0318 24.168 32.0558 23.016C33.1118 21.864 34.3598 20.984 35.7998 20.376C37.2398 19.736 38.8078 19.416 40.5038 19.416C42.1998 19.416 43.7678 19.736 45.2078 20.376C46.6478 20.984 47.8798 21.864 48.9038 23.016C49.9598 24.168 50.7758 25.56 51.3518 27.192C51.9278 28.792 52.2158 30.568 52.2158 32.52ZM47.5598 32.52C47.5598 29.704 46.9198 27.48 45.6398 25.848C44.3918 24.184 42.6798 23.352 40.5038 23.352C38.3278 23.352 36.5998 24.184 35.3198 25.848C34.0718 27.48 33.4478 29.704 33.4478 32.52C33.4478 35.336 34.0718 37.576 35.3198 39.24C36.5998 40.872 38.3278 41.688 40.5038 41.688C42.6798 41.688 44.3918 40.872 45.6398 39.24C46.9198 37.576 47.5598 35.336 47.5598 32.52ZM78.3683 44.28C77.3443 44.536 75.9843 44.808 74.2883 45.096C72.6243 45.384 70.6883 45.528 68.4803 45.528C66.5603 45.528 64.9443 45.256 63.6323 44.712C62.3203 44.136 61.2643 43.336 60.4643 42.312C59.6643 41.288 59.0883 40.088 58.7363 38.712C58.3843 37.304 58.2083 35.752 58.2083 34.056V20.04H62.6723V33.096C62.6723 36.136 63.1523 38.312 64.1123 39.624C65.0723 40.936 66.6883 41.592 68.9603 41.592C69.4403 41.592 69.9363 41.576 70.4483 41.544C70.9603 41.512 71.4403 41.48 71.8883 41.448C72.3363 41.384 72.7363 41.336 73.0883 41.304C73.4723 41.24 73.7443 41.176 73.9043 41.112V20.04H78.3683V44.28Z" fill="white"/>
<path d="M94.0748 41.688C98.9388 41.688 101.371 40.024 101.371 36.696C101.371 35.672 101.147 34.808 100.699 34.104C100.283 33.368 99.7068 32.744 98.9708 32.232C98.2348 31.688 97.3868 31.224 96.4268 30.84C95.4988 30.456 94.5068 30.072 93.4508 29.688C92.2348 29.272 91.0828 28.808 89.9948 28.296C88.9068 27.752 87.9628 27.128 87.1628 26.424C86.3628 25.688 85.7228 24.824 85.2428 23.832C84.7948 22.84 84.5708 21.64 84.5708 20.232C84.5708 17.32 85.5628 15.048 87.5468 13.416C89.5308 11.784 92.2668 10.968 95.7548 10.968C97.7708 10.968 99.5948 11.192 101.227 11.64C102.891 12.056 104.107 12.52 104.875 13.032L103.387 16.824C102.715 16.408 101.707 16.008 100.363 15.624C99.0508 15.208 97.5148 15 95.7548 15C94.8588 15 94.0268 15.096 93.2588 15.288C92.4908 15.48 91.8188 15.768 91.2428 16.152C90.6668 16.536 90.2028 17.032 89.8508 17.64C89.5308 18.216 89.3708 18.904 89.3708 19.704C89.3708 20.6 89.5468 21.352 89.8988 21.96C90.2508 22.568 90.7468 23.112 91.3868 23.592C92.0268 24.04 92.7628 24.456 93.5948 24.84C94.4588 25.224 95.4028 25.608 96.4268 25.992C97.8668 26.568 99.1788 27.144 100.363 27.72C101.579 28.296 102.619 28.984 103.483 29.784C104.379 30.584 105.067 31.544 105.547 32.664C106.027 33.752 106.267 35.08 106.267 36.648C106.267 39.56 105.195 41.8 103.051 43.368C100.939 44.936 97.9468 45.72 94.0748 45.72C92.7628 45.72 91.5468 45.624 90.4268 45.432C89.3388 45.272 88.3628 45.08 87.4988 44.856C86.6348 44.6 85.8828 44.344 85.2428 44.088C84.6348 43.8 84.1548 43.56 83.8027 43.368L85.1948 39.528C85.9308 39.944 87.0508 40.408 88.5547 40.92C90.0588 41.432 91.8988 41.688 94.0748 41.688ZM110.214 32.568C110.214 30.36 110.534 28.44 111.174 26.808C111.814 25.144 112.662 23.768 113.718 22.68C114.774 21.592 115.99 20.776 117.366 20.232C118.742 19.688 120.15 19.416 121.59 19.416C124.95 19.416 127.526 20.472 129.318 22.584C131.11 24.664 132.006 27.848 132.006 32.136C132.006 32.328 132.006 32.584 132.006 32.904C132.006 33.192 131.99 33.464 131.958 33.72H114.87C115.062 36.312 115.814 38.28 117.126 39.624C118.438 40.968 120.486 41.64 123.27 41.64C124.838 41.64 126.15 41.512 127.206 41.256C128.294 40.968 129.11 40.696 129.654 40.44L130.278 44.184C129.734 44.472 128.774 44.776 127.398 45.096C126.054 45.416 124.518 45.576 122.79 45.576C120.614 45.576 118.726 45.256 117.126 44.616C115.558 43.944 114.262 43.032 113.238 41.88C112.214 40.728 111.446 39.368 110.934 37.8C110.454 36.2 110.214 34.456 110.214 32.568ZM127.35 30.12C127.382 28.104 126.87 26.456 125.814 25.176C124.79 23.864 123.366 23.208 121.542 23.208C120.518 23.208 119.606 23.416 118.806 23.832C118.038 24.216 117.382 24.728 116.838 25.368C116.294 26.008 115.862 26.744 115.542 27.576C115.254 28.408 115.062 29.256 114.966 30.12H127.35ZM147.634 19.512C148.018 19.512 148.45 19.544 148.93 19.608C149.442 19.64 149.938 19.704 150.418 19.8C150.898 19.864 151.33 19.944 151.714 20.04C152.13 20.104 152.434 20.168 152.626 20.232L151.858 24.12C151.506 23.992 150.914 23.848 150.082 23.688C149.282 23.496 148.242 23.4 146.962 23.4C146.13 23.4 145.298 23.496 144.466 23.688C143.666 23.848 143.138 23.96 142.882 24.024V45H138.418V21.096C139.474 20.712 140.786 20.36 142.354 20.04C143.922 19.688 145.682 19.512 147.634 19.512ZM177.453 20.04C176.205 24.712 174.733 29.192 173.037 33.48C171.373 37.768 169.757 41.608 168.189 45H164.157C162.589 41.608 160.957 37.768 159.261 33.48C157.597 29.192 156.141 24.712 154.893 20.04H159.693C160.077 21.608 160.525 23.288 161.037 25.08C161.581 26.84 162.141 28.6 162.717 30.36C163.325 32.088 163.933 33.768 164.541 35.4C165.149 37.032 165.725 38.488 166.269 39.768C166.813 38.488 167.389 37.032 167.997 35.4C168.605 33.768 169.197 32.088 169.773 30.36C170.381 28.6 170.941 26.84 171.453 25.08C171.997 23.288 172.461 21.608 172.845 20.04H177.453ZM186.523 45H182.059V20.04H186.523V45ZM184.267 15.528C183.467 15.528 182.779 15.272 182.203 14.76C181.659 14.216 181.387 13.496 181.387 12.6C181.387 11.704 181.659 11 182.203 10.488C182.779 9.944 183.467 9.672 184.267 9.672C185.067 9.672 185.739 9.944 186.283 10.488C186.859 11 187.147 11.704 187.147 12.6C187.147 13.496 186.859 14.216 186.283 14.76C185.739 15.272 185.067 15.528 184.267 15.528ZM205.047 45.576C203.031 45.576 201.255 45.256 199.719 44.616C198.215 43.976 196.935 43.08 195.879 41.928C194.855 40.776 194.087 39.416 193.575 37.848C193.063 36.248 192.807 34.488 192.807 32.568C192.807 30.648 193.079 28.888 193.623 27.288C194.199 25.688 194.999 24.312 196.023 23.16C197.047 21.976 198.295 21.064 199.767 20.424C201.271 19.752 202.935 19.416 204.759 19.416C205.879 19.416 206.999 19.512 208.119 19.704C209.239 19.896 210.311 20.2 211.335 20.616L210.327 24.408C209.655 24.088 208.871 23.832 207.975 23.64C207.111 23.448 206.183 23.352 205.191 23.352C202.695 23.352 200.775 24.136 199.431 25.704C198.119 27.272 197.463 29.56 197.463 32.568C197.463 33.912 197.607 35.144 197.895 36.264C198.215 37.384 198.695 38.344 199.335 39.144C200.007 39.944 200.855 40.568 201.879 41.016C202.903 41.432 204.151 41.64 205.623 41.64C206.807 41.64 207.879 41.528 208.839 41.304C209.799 41.08 210.551 40.84 211.095 40.584L211.719 44.328C211.463 44.488 211.095 44.648 210.615 44.808C210.135 44.936 209.591 45.048 208.983 45.144C208.375 45.272 207.719 45.368 207.015 45.432C206.343 45.528 205.687 45.576 205.047 45.576ZM215.12 32.568C215.12 30.36 215.44 28.44 216.08 26.808C216.72 25.144 217.568 23.768 218.624 22.68C219.68 21.592 220.896 20.776 222.272 20.232C223.648 19.688 225.056 19.416 226.496 19.416C229.856 19.416 232.432 20.472 234.224 22.584C236.016 24.664 236.912 27.848 236.912 32.136C236.912 32.328 236.912 32.584 236.912 32.904C236.912 33.192 236.896 33.464 236.864 33.72H219.776C219.968 36.312 220.72 38.28 222.032 39.624C223.344 40.968 225.392 41.64 228.176 41.64C229.744 41.64 231.056 41.512 232.112 41.256C233.2 40.968 234.016 40.696 234.56 40.44L235.184 44.184C234.64 44.472 233.68 44.776 232.304 45.096C230.96 45.416 229.424 45.576 227.696 45.576C225.52 45.576 223.632 45.256 222.032 44.616C220.464 43.944 219.168 43.032 218.144 41.88C217.12 40.728 216.352 39.368 215.84 37.8C215.36 36.2 215.12 34.456 215.12 32.568ZM232.256 30.12C232.288 28.104 231.776 26.456 230.72 25.176C229.696 23.864 228.272 23.208 226.448 23.208C225.424 23.208 224.512 23.416 223.712 23.832C222.944 24.216 222.288 24.728 221.744 25.368C221.2 26.008 220.768 26.744 220.448 27.576C220.16 28.408 219.968 29.256 219.872 30.12H232.256Z" fill="#FBFF35"/>
<path d="M288.102 41.2271L276.781 29.9062L271.923 34.7646L283.244 46.0854C284.596 47.4375 286.773 47.4375 288.102 46.0854C289.431 44.7333 289.431 42.5562 288.102 41.2271Z" fill="white"/>
<path d="M280.448 22.9167C284.871 22.9167 288.469 19.3188 288.469 14.8959C288.469 13.5667 288.102 12.3292 287.529 11.2292L281.342 17.4167L277.927 14.0021L284.115 7.8146C283.015 7.24169 281.777 6.87502 280.448 6.87502C276.025 6.87502 272.427 10.4729 272.427 14.8959C272.427 15.8354 272.61 16.7292 272.908 17.5542L268.669 21.7938L264.59 17.7146C265.483 16.8209 265.483 15.3771 264.59 14.4834L262.963 12.8563L267.821 7.99794C265.14 5.31669 260.785 5.31669 258.104 7.99794L251.642 14.4834C250.748 15.3771 250.748 16.8209 251.642 17.7146L253.269 19.3417H247.448C247.013 19.3417 246.6 19.5021 246.302 19.8229C245.66 20.4646 245.66 21.4729 246.302 22.1146L252.123 27.9354C252.765 28.5771 253.773 28.5771 254.415 27.9354C254.713 27.6375 254.896 27.225 254.896 26.7896V20.9688L256.5 22.5729C257.394 23.4667 258.838 23.4667 259.731 22.5729L263.81 26.6521L249.258 41.2042C247.906 42.5563 247.906 44.7334 249.258 46.0625C250.61 47.4146 252.788 47.4146 254.117 46.0625L277.767 22.4354C278.615 22.7334 279.508 22.9167 280.448 22.9167Z" fill="white"/>
</svg>
