<svg width="60" height="60" viewBox="0 0 60 60" fill="none" xmlns="http://www.w3.org/2000/svg">
<path d="M50.3998 17.1C43.1998 6 28.4998 2.7 17.0998 9.6C5.99983 16.5 2.39983 31.5 9.59983 42.6L10.1998 43.5L7.79983 52.5L16.7998 50.1L17.6998 50.7C21.5998 52.8 25.7998 54 29.9998 54C34.4998 54 38.9998 52.8 42.8998 50.4C53.9998 43.2 57.2998 28.5 50.3998 17.1ZM44.0998 40.2C42.8998 42 41.3998 43.2 39.2998 43.5C38.0998 43.5 36.5998 44.1 30.5998 41.7C25.4998 39.3 21.2998 35.4 18.2998 30.9C16.4998 28.8 15.5998 26.1 15.2998 23.4C15.2998 21 16.1998 18.9 17.6998 17.4C18.2998 16.8 18.8998 16.5 19.4998 16.5H20.9998C21.5998 16.5 22.1998 16.5 22.4998 17.7C23.0998 19.2 24.5998 22.8 24.5998 23.1C24.8998 23.4 24.8998 24 24.5998 24.3C24.8998 24.9 24.5998 25.5 24.2998 25.8C23.9998 26.1 23.6998 26.7 23.3998 27C22.7998 27.3 22.4998 27.9 22.7998 28.5C23.9998 30.3 25.4998 32.1 26.9998 33.6C28.7998 35.1 30.5998 36.3 32.6998 37.2C33.2998 37.5 33.8998 37.5 34.1998 36.9C34.4998 36.3 35.9998 34.8 36.5998 34.2C37.1998 33.6 37.4998 33.6 38.0998 33.9L42.8998 36.3C43.4998 36.6 44.0998 36.9 44.3998 37.2C44.6998 38.1 44.6998 39.3 44.0998 40.2Z" fill="white"/>
</svg>
