<svg width="55" height="55" viewBox="0 0 55 55" fill="none" xmlns="http://www.w3.org/2000/svg">
<path d="M47.2812 41.2401L35.9604 29.9193L31.1021 34.7776L42.4229 46.0985C43.775 47.4506 45.9521 47.4506 47.2812 46.0985C48.6104 44.7464 48.6104 42.5693 47.2812 41.2401Z" fill="url(#paint0_linear_35_2)"/>
<path d="M39.6271 22.9297C44.05 22.9297 47.6479 19.3318 47.6479 14.9089C47.6479 13.5797 47.2812 12.3422 46.7083 11.2422L40.5208 17.4297L37.1062 14.0151L43.2937 7.8276C42.1937 7.25469 40.9562 6.88802 39.6271 6.88802C35.2042 6.88802 31.6062 10.4859 31.6062 14.9089C31.6062 15.8484 31.7896 16.7422 32.0875 17.5672L27.8479 21.8068L23.7687 17.7276C24.6625 16.8339 24.6625 15.3901 23.7687 14.4964L22.1417 12.8693L27 8.01094C24.3188 5.32969 19.9646 5.32969 17.2833 8.01094L10.8208 14.4964C9.92708 15.3901 9.92708 16.8339 10.8208 17.7276L12.4479 19.3547H6.62708C6.19167 19.3547 5.77917 19.5151 5.48125 19.8359C4.83958 20.4776 4.83958 21.4859 5.48125 22.1276L11.3021 27.9484C11.9437 28.5901 12.9521 28.5901 13.5937 27.9484C13.8917 27.6505 14.075 27.238 14.075 26.8026V20.9818L15.6792 22.5859C16.5729 23.4797 18.0167 23.4797 18.9104 22.5859L22.9896 26.6651L8.4375 41.2172C7.08542 42.5693 7.08542 44.7464 8.4375 46.0755C9.78958 47.4276 11.9667 47.4276 13.2958 46.0755L36.9458 22.4484C37.7937 22.7464 38.6875 22.9297 39.6271 22.9297Z" fill="url(#paint1_linear_35_2)"/>
<defs>
<linearGradient id="paint0_linear_35_2" x1="36.6583" y1="32.2194" x2="43.3616" y2="38.9785" gradientUnits="userSpaceOnUse">
<stop stop-color="#FBFF35"/>
<stop offset="1" stop-color="#EA2C43"/>
</linearGradient>
<linearGradient id="paint1_linear_35_2" x1="18.7961" y1="11.4969" x2="34.7993" y2="28.262" gradientUnits="userSpaceOnUse">
<stop stop-color="#FBFF35"/>
<stop offset="1" stop-color="#EA2C43"/>
</linearGradient>
</defs>
</svg>
